 <svg width="16px" height="13px" viewBox="0 0 16 13" version="1.1">
              <title>Desc</title>
              <defs>
                <path
                  d="M12.6432211,12.0837999 C12.2719799,12.0837999 11.9718989,11.7837189 11.9718989,11.4124777 L11.9718989,0.671322216 C11.9718989,0.300752353 12.2719799,-1.13686838e-13 12.6432211,-1.13686838e-13 C13.0144623,-1.13686838e-13 13.3145433,0.300752353 13.3145433,0.671322216 L13.3145433,11.4124777 C13.3145433,11.7837189 13.0144623,12.0837999 12.6432211,12.0837999 Z M12.6432211,12.0837999 C12.4713626,12.0837999 12.2995041,12.0180103 12.1685963,11.8871025 L9.48330742,9.20181362 C9.22082043,8.93932663 9.22082043,8.51505099 9.48330742,8.25256401 C9.7457944,7.99007702 10.17007,7.99007702 10.432557,8.25256401 L12.6432211,10.4632281 L14.8538851,8.25256401 C15.1163721,7.99007702 15.5406478,7.99007702 15.8031348,8.25256401 C16.0656217,8.51505099 16.0656217,8.93932663 15.8031348,9.20181362 L13.1178459,11.8871025 C12.9869381,12.0180103 12.8150796,12.0837999 12.6432211,12.0837999 Z M9.59238631,2.34962776 L0.477446932,2.34962776 C0.213896226,2.34962776 0,2.0488754 0,1.67830554 C0,1.30773568 0.213896226,1.00698332 0.477446932,1.00698332 L9.59238631,1.00698332 C9.85641447,1.00698332 10.0698332,1.30773568 10.0698332,1.67830554 C10.0698332,2.0488754 9.85641447,2.34962776 9.59238631,2.34962776 Z M7.51880882,6.37756105 L0.537057773,6.37756105 C0.240601882,6.37756105 0,6.0768087 0,5.70623884 C0,5.33566898 0.240601882,5.03491662 0.537057773,5.03491662 L7.51880882,5.03491662 C7.81580177,5.03491662 8.0558666,5.33566898 8.0558666,5.70623884 C8.0558666,6.0768087 7.81580177,6.37756105 7.51880882,6.37756105 Z M5.37057773,10.4054944 L0.671322216,10.4054944 C0.300752353,10.4054944 0,10.1054133 0,9.73417214 C0,9.36293095 0.300752353,9.06284992 0.671322216,9.06284992 L5.37057773,9.06284992 C5.74114759,9.06284992 6.04189995,9.36293095 6.04189995,9.73417214 C6.04189995,10.1054133 5.74114759,10.4054944 5.37057773,10.4054944 Z"
                  id="path-1"
                ></path>
              </defs>
              <g
                id="Symbols"
                stroke="none"
                stroke-width="1"
                fill="none"
                fill-rule="evenodd"
              >
                <g
                  id="_bits-/-table-/-title-row"
                  transform="translate(-296.000000, -24.000000)"
                >
                  <g id="Group-4" transform="translate(240.000000, 22.000000)">
                    <g
                      id="Platform/C/Chevron/Down-Copy"
                      transform="translate(56.000000, 2.000000)"
                    >
                      <g id="Platform/C/Chevron/Down">
                        <mask id="mask-2" fill="white">
                          <use xlink:href="#path-1"></use>
                        </mask>
                        <use
                          id="Glyph"
                          fill="#474747"
                          fill-rule="nonzero"
                          xlink:href="#path-1"
                        ></use>
                      </g>
                    </g>
                  </g>
                </g>
              </g>
            </svg>